<svg version="1.1" id="Layer_1" xmlns="http://www.w3.org/2000/svg" xmlns:xlink="http://www.w3.org/1999/xlink" x="0px" y="0px"
	 width="100%" viewBox="0 0 465 178" enable-background="new 0 0 465 178" xml:space="preserve">
<path fill="#020202" opacity="1.000000" stroke="none" 
	d="
M292.000000,179.000000 
	C194.666702,179.000000 97.833405,179.000000 1.000078,179.000000 
	C1.000052,119.666725 1.000052,60.333447 1.000026,1.000126 
	C155.999893,1.000084 310.999786,1.000084 465.999756,1.000042 
	C465.999817,60.333202 465.999817,119.666405 465.999908,178.999802 
	C408.166656,179.000000 350.333344,179.000000 292.000000,179.000000 
M420.095917,54.634850 
	C420.385590,54.939301 420.675262,55.243755 420.997345,55.494129 
	C420.997345,55.494129 420.935181,55.479797 421.000366,56.365765 
	C421.056549,57.253540 421.112732,58.141315 420.830841,59.647900 
	C420.708771,59.760056 420.474884,59.878304 420.480621,59.983490 
	C420.788300,65.632088 426.897614,70.493919 433.753174,69.972450 
	C440.134796,69.487038 445.862823,63.458420 445.046997,57.997215 
	C445.004211,57.710518 443.705292,57.611462 442.926331,57.497723 
	C442.926331,57.497723 442.979980,57.578991 443.804993,57.870304 
	C444.170135,57.463905 444.535309,57.057507 445.313660,55.988449 
	C444.076904,49.712337 439.976410,45.567478 434.313293,44.869015 
	C428.532043,44.155975 423.099365,47.668789 420.095917,54.634850 
M104.530876,124.647591 
	C104.465553,118.702469 104.400223,112.757347 103.711876,106.769279 
	C103.505630,106.741074 103.299377,106.712860 102.900345,106.313698 
	C102.568832,106.437248 102.237312,106.560799 101.152107,106.767632 
	C93.465530,106.767632 85.778961,106.767632 77.097443,106.767632 
	C85.096588,96.747391 92.025749,87.177605 99.923912,78.488655 
	C105.131348,72.759827 104.964409,66.726479 104.218605,60.021423 
	C86.469803,60.021423 68.921379,60.021423 51.313957,60.021423 
	C51.313957,65.792900 51.313957,71.189629 51.313957,77.089157 
	C59.653584,77.089157 67.690887,77.089157 76.459320,77.089157 
	C67.037460,89.106552 58.145668,100.447868 48.714172,112.195908 
	C48.871384,114.137657 49.028599,116.079407 49.313595,118.817673 
	C49.349831,120.424980 49.386063,122.032288 49.236576,123.997238 
	C49.500641,124.023109 49.764702,124.048981 50.959938,124.149353 
	C68.648766,124.162468 86.337601,124.175575 104.530876,124.647591 
M379.391724,80.273300 
	C381.451477,76.171692 384.961273,75.051025 389.052246,76.182129 
	C393.389679,77.381378 394.846436,81.007996 394.893555,85.099701 
	C395.016296,95.760635 394.955627,106.423683 394.967072,117.085892 
	C394.969482,119.336319 394.967438,121.586739 394.967438,123.730469 
	C401.987274,123.730469 408.214691,123.730469 414.592468,123.730469 
	C414.592468,109.212769 415.091064,95.054398 414.437592,80.949402 
	C413.896942,69.278755 404.528351,60.402557 392.873413,58.840347 
	C384.158600,57.672218 375.992249,59.086445 368.551971,64.097031 
	C362.252960,59.495888 355.267059,58.017834 347.698364,58.545143 
	C340.414246,59.052635 333.113831,59.323727 325.822357,59.730515 
	C324.571594,59.800293 323.329773,60.029408 322.357208,60.150795 
	C322.357208,81.698860 322.357208,102.764862 322.357208,123.731125 
	C328.985809,123.731125 335.214264,123.731125 341.756805,123.731125 
	C341.756805,111.052200 341.722809,98.747757 341.770874,86.443634 
	C341.795654,80.104736 345.001770,76.019135 349.938660,75.797417 
	C354.837128,75.577431 358.200378,79.445473 358.473602,86.027786 
	C358.673828,90.850906 358.516876,95.688896 358.517365,100.520256 
	C358.518219,108.292107 358.517639,116.063957 358.517639,123.734810 
	C365.430908,123.734810 371.671967,123.734810 378.194183,123.734810 
	C378.194183,115.540970 378.084595,107.726112 378.228699,99.915947 
	C378.345001,93.613457 378.767487,87.316635 379.391724,80.273300 
M173.483154,106.544884 
	C164.318161,106.544884 155.153168,106.544884 145.060318,106.544884 
	C146.406555,104.487183 146.991821,103.523109 147.643768,102.606445 
	C159.411713,86.059860 170.955887,69.346046 183.094559,53.075813 
	C187.053787,47.768990 186.953690,42.573055 186.300858,36.664421 
	C163.951065,36.664421 141.922623,36.664421 119.878464,36.664421 
	C119.878464,42.550262 119.878464,48.102249 119.878464,54.009850 
	C132.665192,54.009850 145.071625,54.009850 158.278152,54.009850 
	C156.950134,55.923355 156.051163,57.248962 155.121948,58.553009 
	C143.437485,74.950714 131.968353,91.509094 119.936516,107.647926 
	C115.961182,112.980217 116.386909,118.213615 116.973984,123.933121 
	C140.576294,123.933121 163.812927,123.933121 187.234406,123.933121 
	C187.234406,118.069664 187.234406,112.530754 187.234406,106.544014 
	C182.750061,106.544014 178.612366,106.544014 173.483154,106.544884 
M208.825760,95.317490 
	C206.128525,98.704079 203.789688,102.475533 200.656082,105.393478 
	C194.937698,110.718292 195.704956,117.099434 196.317017,123.803703 
	C214.704010,123.803703 232.760864,123.803703 251.001556,123.803703 
	C251.001556,118.097984 251.001556,112.708839 251.001556,106.809608 
	C242.041367,106.809608 233.336090,106.809608 223.687653,106.809608 
	C231.450623,97.103600 238.180984,87.801323 245.872345,79.376366 
	C251.220245,73.518425 251.846069,67.303192 250.788208,60.069550 
	C233.120636,60.069550 215.593109,60.069550 198.103790,60.069550 
	C198.103790,65.843948 198.103790,71.245155 198.103790,77.081436 
	C206.455902,77.081436 214.509933,77.081436 223.438553,77.081436 
	C218.340317,83.440811 213.802475,89.101151 208.825760,95.317490 
M281.376587,79.500191 
	C281.376587,65.432785 281.376587,51.365379 281.376587,37.268345 
	C274.460541,37.268345 268.198456,37.268345 262.020294,37.268345 
	C262.020294,66.268021 262.020294,94.996552 262.020294,123.760818 
	C268.586334,123.760818 274.821228,123.760818 281.376678,123.760818 
	C281.376678,109.114029 281.376678,94.807121 281.376587,79.500191 
M291.807312,108.497047 
	C291.807312,113.585999 291.807312,118.674950 291.807312,123.805832 
	C298.723236,123.805832 304.951172,123.805832 311.201965,123.805832 
	C311.201965,103.364235 311.201965,83.235016 311.201965,62.945221 
	C301.922180,66.576218 301.922180,66.576218 291.807251,63.089081 
	C291.807251,78.006927 291.807251,92.752663 291.807312,108.497047 
M296.897247,52.893158 
	C294.718842,52.893158 292.540436,52.893158 289.806000,52.893158 
	C294.586853,58.780422 300.321960,60.429413 306.193939,58.174816 
	C312.061279,55.922001 315.517853,50.456287 315.107697,44.079960 
	C314.720398,38.058613 311.006500,33.696751 305.105133,32.332298 
	C308.196838,43.652344 306.309265,48.834045 296.897247,52.893158 
z"/>
<path fill="#F9F9FA" opacity="1.000000" stroke="none" 
	d="
M379.222931,80.645294 
	C378.767487,87.316635 378.345001,93.613457 378.228699,99.915947 
	C378.084595,107.726112 378.194183,115.540970 378.194183,123.734810 
	C371.671967,123.734810 365.430908,123.734810 358.517639,123.734810 
	C358.517639,116.063957 358.518219,108.292107 358.517365,100.520256 
	C358.516876,95.688896 358.673828,90.850906 358.473602,86.027786 
	C358.200378,79.445473 354.837128,75.577431 349.938660,75.797417 
	C345.001770,76.019135 341.795654,80.104736 341.770874,86.443634 
	C341.722809,98.747757 341.756805,111.052200 341.756805,123.731125 
	C335.214264,123.731125 328.985809,123.731125 322.357208,123.731125 
	C322.357208,102.764862 322.357208,81.698860 322.357208,60.150795 
	C323.329773,60.029408 324.571594,59.800293 325.822357,59.730515 
	C333.113831,59.323727 340.414246,59.052635 347.698364,58.545143 
	C355.267059,58.017834 362.252960,59.495888 368.551971,64.097031 
	C375.992249,59.086445 384.158600,57.672218 392.873413,58.840347 
	C404.528351,60.402557 413.896942,69.278755 414.437592,80.949402 
	C415.091064,95.054398 414.592468,109.212769 414.592468,123.730469 
	C408.214691,123.730469 401.987274,123.730469 394.967438,123.730469 
	C394.967438,121.586739 394.969482,119.336319 394.967072,117.085892 
	C394.955627,106.423683 395.016296,95.760635 394.893555,85.099701 
	C394.846436,81.007996 393.389679,77.381378 389.052246,76.182129 
	C384.961273,75.051025 381.451477,76.171692 379.222931,80.645294 
z"/>
<path fill="#F8F8F8" opacity="1.000000" stroke="none" 
	d="
M173.978912,106.544449 
	C178.612366,106.544014 182.750061,106.544014 187.234406,106.544014 
	C187.234406,112.530754 187.234406,118.069664 187.234406,123.933121 
	C163.812927,123.933121 140.576294,123.933121 116.973984,123.933121 
	C116.386909,118.213615 115.961182,112.980217 119.936516,107.647926 
	C131.968353,91.509094 143.437485,74.950714 155.121948,58.553009 
	C156.051163,57.248962 156.950134,55.923355 158.278152,54.009850 
	C145.071625,54.009850 132.665192,54.009850 119.878464,54.009850 
	C119.878464,48.102249 119.878464,42.550262 119.878464,36.664421 
	C141.922623,36.664421 163.951065,36.664421 186.300858,36.664421 
	C186.953690,42.573055 187.053787,47.768990 183.094559,53.075813 
	C170.955887,69.346046 159.411713,86.059860 147.643768,102.606445 
	C146.991821,103.523109 146.406555,104.487183 145.060318,106.544884 
	C155.153168,106.544884 164.318161,106.544884 173.978912,106.544449 
z"/>
<path fill="#FAFAFA" opacity="1.000000" stroke="none" 
	d="
M49.422295,123.639595 
	C49.386063,122.032288 49.349831,120.424980 49.449493,118.082291 
	C49.474884,115.494339 49.364376,113.641754 49.253872,111.789185 
	C58.145668,100.447868 67.037460,89.106552 76.459320,77.089157 
	C67.690887,77.089157 59.653584,77.089157 51.313957,77.089157 
	C51.313957,71.189629 51.313957,65.792900 51.313957,60.021423 
	C68.921379,60.021423 86.469803,60.021423 104.218605,60.021423 
	C104.964409,66.726479 105.131348,72.759827 99.923912,78.488655 
	C92.025749,87.177605 85.096588,96.747391 77.097443,106.767632 
	C85.778961,106.767632 93.465530,106.767632 101.825760,106.849625 
	C102.697319,106.849297 102.895226,106.766975 103.093132,106.684654 
	C103.299377,106.712860 103.505630,106.741074 104.038376,107.271278 
	C104.252068,113.245079 104.139252,118.716881 104.026428,124.188683 
	C86.337601,124.175575 68.648766,124.162468 50.412888,123.905518 
	C49.865841,123.661690 49.422295,123.639595 49.422295,123.639595 
z"/>
<path fill="#FBFBFB" opacity="1.000000" stroke="none" 
	d="
M209.045197,95.039490 
	C213.802475,89.101151 218.340317,83.440811 223.438553,77.081436 
	C214.509933,77.081436 206.455902,77.081436 198.103790,77.081436 
	C198.103790,71.245155 198.103790,65.843948 198.103790,60.069550 
	C215.593109,60.069550 233.120636,60.069550 250.788208,60.069550 
	C251.846069,67.303192 251.220245,73.518425 245.872345,79.376366 
	C238.180984,87.801323 231.450623,97.103600 223.687653,106.809608 
	C233.336090,106.809608 242.041367,106.809608 251.001556,106.809608 
	C251.001556,112.708839 251.001556,118.097984 251.001556,123.803703 
	C232.760864,123.803703 214.704010,123.803703 196.317017,123.803703 
	C195.704956,117.099434 194.937698,110.718292 200.656082,105.393478 
	C203.789688,102.475533 206.128525,98.704079 209.045197,95.039490 
z"/>
<path fill="#FCFCFC" opacity="1.000000" stroke="none" 
	d="
M281.376648,80.000198 
	C281.376678,94.807121 281.376678,109.114029 281.376678,123.760818 
	C274.821228,123.760818 268.586334,123.760818 262.020294,123.760818 
	C262.020294,94.996552 262.020294,66.268021 262.020294,37.268345 
	C268.198456,37.268345 274.460541,37.268345 281.376587,37.268345 
	C281.376587,51.365379 281.376587,65.432785 281.376648,80.000198 
z"/>
<path fill="#F4F5F6" opacity="1.000000" stroke="none" 
	d="
M291.807281,107.997726 
	C291.807251,92.752663 291.807251,78.006927 291.807251,63.089081 
	C301.922180,66.576218 301.922180,66.576218 311.201965,62.945221 
	C311.201965,83.235016 311.201965,103.364235 311.201965,123.805832 
	C304.951172,123.805832 298.723236,123.805832 291.807312,123.805832 
	C291.807312,118.674950 291.807312,113.585999 291.807281,107.997726 
z"/>
<path fill="#EFEFF0" opacity="1.000000" stroke="none" 
	d="
M297.289124,52.803032 
	C306.309265,48.834045 308.196838,43.652344 305.105133,32.332298 
	C311.006500,33.696751 314.720398,38.058613 315.107697,44.079960 
	C315.517853,50.456287 312.061279,55.922001 306.193939,58.174816 
	C300.321960,60.429413 294.586853,58.780422 289.806000,52.893158 
	C292.540436,52.893158 294.718842,52.893158 297.289124,52.803032 
z"/>
<path fill="#0B0C0E" opacity="1.000000" stroke="none" 
	d="
M420.935181,55.479797 
	C420.935181,55.479797 420.997345,55.494129 421.165039,55.539703 
	C421.332703,55.585281 421.577820,55.309963 421.971680,55.305412 
	C424.247803,53.232002 426.130035,51.163139 427.999268,49.421967 
	C427.999908,50.186703 428.013550,50.623749 427.981018,51.519569 
	C427.934875,55.997940 427.934875,60.017536 427.934875,64.037132 
	C428.486694,64.015633 429.038513,63.994137 429.590332,63.972645 
	C429.879181,62.335434 430.167999,60.698227 430.636505,58.042500 
	C433.143616,60.007130 435.023529,61.480305 437.258850,63.117363 
	C438.320831,63.606476 439.027435,63.931705 439.494537,64.574104 
	C432.449432,69.264931 427.214325,67.703110 422.876404,59.539841 
	C421.960358,58.052277 424.824829,54.904278 420.935181,55.479797 
z"/>
<path fill="#242628" opacity="1.000000" stroke="none" 
	d="
M439.734009,64.256935 
	C439.027435,63.931705 438.320831,63.606476 437.318298,62.773449 
	C436.887390,60.813469 436.128876,58.996483 436.727417,57.973434 
	C439.084320,53.944763 438.063599,51.408596 433.421783,51.007523 
	C431.638458,50.853436 429.826233,51.033165 428.027161,51.060791 
	C428.013550,50.623749 427.999908,50.186703 428.214600,49.127300 
	C435.654541,45.912903 440.148254,48.228622 442.941956,56.393585 
	C442.926147,57.052040 442.953064,57.315517 442.979980,57.578991 
	C442.979980,57.578991 442.926331,57.497723 442.890442,57.839165 
	C441.814362,60.206047 440.774200,62.231495 439.734009,64.256935 
z"/>
<path fill="#D4D5D8" opacity="1.000000" stroke="none" 
	d="
M439.494568,64.574112 
	C440.774200,62.231495 441.814362,60.206047 442.922852,57.802826 
	C443.705292,57.611462 445.004211,57.710518 445.046997,57.997215 
	C445.862823,63.458420 440.134796,69.487038 433.753174,69.972450 
	C426.897614,70.493919 420.788300,65.632088 420.480621,59.983490 
	C420.474884,59.878304 420.708771,59.760056 421.216125,59.443035 
	C422.010162,59.488922 422.418945,59.739674 422.827728,59.990417 
	C427.214325,67.703110 432.449432,69.264931 439.494568,64.574112 
z"/>
<path fill="#CDCED2" opacity="1.000000" stroke="none" 
	d="
M442.984650,55.998611 
	C440.148254,48.228622 435.654541,45.912903 428.227600,48.799606 
	C426.130035,51.163139 424.247803,53.232002 421.737244,54.845718 
	C420.799286,54.262962 420.489624,54.135353 420.179962,54.007744 
	C423.099365,47.668789 428.532043,44.155975 434.313293,44.869015 
	C439.976410,45.567478 444.076904,49.712337 444.646240,56.088654 
	C443.647430,56.125446 443.316040,56.062027 442.984650,55.998611 
z"/>
<path fill="#535759" opacity="1.000000" stroke="none" 
	d="
M104.278656,124.418137 
	C104.139252,118.716881 104.252068,113.245079 104.349884,107.292755 
	C104.400223,112.757347 104.465553,118.702469 104.278656,124.418137 
z"/>
<path fill="#535759" opacity="1.000000" stroke="none" 
	d="
M48.984020,111.992538 
	C49.364376,113.641754 49.474884,115.494339 49.385601,117.684036 
	C49.028599,116.079407 48.871384,114.137657 48.984020,111.992538 
z"/>
<path fill="#CDCED2" opacity="1.000000" stroke="none" 
	d="
M422.876404,59.539845 
	C422.418945,59.739674 422.010162,59.488922 421.385132,59.133629 
	C421.112732,58.141315 421.056549,57.253540 420.967773,55.922783 
	C424.824829,54.904278 421.960358,58.052277 422.876404,59.539845 
z"/>
<path fill="#D4D5D8" opacity="1.000000" stroke="none" 
	d="
M442.941956,56.393585 
	C443.316040,56.062027 443.647430,56.125446 444.439636,56.419987 
	C444.535309,57.057507 444.170135,57.463905 443.392487,57.724648 
	C442.953064,57.315517 442.926147,57.052040 442.941956,56.393585 
z"/>
<path fill="#D4D5D8" opacity="1.000000" stroke="none" 
	d="
M420.137939,54.321297 
	C420.489624,54.135353 420.799286,54.262962 421.343384,54.850266 
	C421.577820,55.309963 421.332703,55.585281 421.148804,55.566742 
	C420.675262,55.243755 420.385590,54.939301 420.137939,54.321297 
z"/>
<path fill="#535759" opacity="1.000000" stroke="none" 
	d="
M102.996735,106.499176 
	C102.895226,106.766975 102.697319,106.849297 102.202606,106.807991 
	C102.237312,106.560799 102.568832,106.437248 102.996735,106.499176 
z"/>
<path fill="#535759" opacity="1.000000" stroke="none" 
	d="
M49.329437,123.818420 
	C49.422295,123.639595 49.865841,123.661690 49.947304,123.868271 
	C49.764702,124.048981 49.500641,124.023109 49.329437,123.818420 
z"/>
<path fill="#E8E9EB" opacity="1.000000" stroke="none" 
	d="
M427.981018,51.519569 
	C429.826233,51.033165 431.638458,50.853436 433.421783,51.007523 
	C438.063599,51.408596 439.084320,53.944763 436.727417,57.973434 
	C436.128876,58.996483 436.887390,60.813469 436.962891,62.609566 
	C435.023529,61.480305 433.143616,60.007130 430.636505,58.042500 
	C430.167999,60.698227 429.879181,62.335434 429.590332,63.972645 
	C429.038513,63.994137 428.486694,64.015633 427.934875,64.037132 
	C427.934875,60.017536 427.934875,55.997940 427.981018,51.519569 
z"/>
</svg>